<svg xmlns="http://www.w3.org/2000/svg" width="73" height="70" fill="none" viewBox="0 0 73 70"><path fill="#103539" d="M23.485 52.879a21.4 21.4 0 0 1-2.161-2.364l-.518-.688c-.158-.22-.367-.48-.453-.637l-.344-.535-.086-.136-.042-.064a2 2 0 0 0-.093-.126l-.024-.038-.173-.293a47 47 0 0 1-2.466-4.62 39 39 0 0 1-1.01-2.259 42 42 0 0 1-.855-2.219 44 44 0 0 1-1.326-4.224 41 41 0 0 1-.86-3.883 38 38 0 0 1-.615-6.395c-.034-1.768.147-3.172.272-4.11.168-.917.284-1.407.284-1.407s.124.48.362 1.385c.27.877.648 2.145 1.288 3.71a62 62 0 0 0 2.526 5.44c.27.507.535 1.032.85 1.556.3.527.591 1.077.932 1.617.337.545.66 1.11 1.033 1.665.362.562.713 1.138 1.114 1.705a33 33 0 0 0 1.22 1.725q.315.433.632.878c.218.288.444.575.67.875.893 1.174 1.892 2.319 2.9 3.484l.187.218.023.029c.023.03-.12-.159-.047-.067l.053.057.108.115.435.462c.163.18.25.231.367.331l.323.28c.524.415 1.04.84 1.607 1.212 1.111.766 2.35 1.363 3.627 1.828 1.277.487 2.631.763 3.984.883 1.35.124 2.71.084 4-.187a12.8 12.8 0 0 0 6.776-3.611l.346-.358.024-.026.07-.052.24-.272.24-.273.12-.139.05-.073c.062-.093.121-.181.188-.27.06-.068.151-.226.233-.349.081-.13.176-.25.252-.385.146-.27.317-.525.44-.805a11.5 11.5 0 0 0 1.091-3.533c.337-2.47-.042-5.102-1.142-7.187-.541-1.045-1.206-1.98-2.008-2.751a10.1 10.1 0 0 0-2.754-1.86 12 12 0 0 0-1.592-.578 6.7 6.7 0 0 0-1.42-.306c-.931-.092-1.801-.022-2.62.258-1.627.543-2.988 1.958-3.513 3.515a5.1 5.1 0 0 0 .409 4.397c.725 1.246 1.807 2.056 2.554 2.55.769.493 1.23.717 1.23.717l-.37.022c-.244.014-.613.036-1.1 0-.96-.06-2.461-.244-4.204-1.37-.855-.566-1.724-1.418-2.413-2.56a9.1 9.1 0 0 1-1.211-4.183 10.76 10.76 0 0 1 .969-4.97 11.74 11.74 0 0 1 3.62-4.543c1.65-1.278 3.745-2.18 5.94-2.512a16 16 0 0 1 3.354-.178c1.09.056 2.13.229 3.219.49 2.155.521 4.36 1.432 6.313 2.826 1.948 1.391 3.745 3.135 5.08 5.207 2.752 4.108 4.038 9.228 3.54 14.352-.26 2.558-.938 5.126-2.101 7.497-.268.6-.615 1.17-.938 1.748-.165.288-.353.559-.532.836-.187.28-.348.54-.592.852l-.684.883-.174.217-.122.139-.239.272-.24.272-.12.139-.168.186-.042.042-.086.085-.673.677a23.4 23.4 0 0 1-6.342 4.371 22.9 22.9 0 0 1-7.34 2.028c-2.497.264-4.968.097-7.317-.356a25.3 25.3 0 0 1-6.578-2.38c-2.02-1.049-3.818-2.41-5.387-3.901"/></svg>