<svg width="181" height="102" viewBox="0 0 181 102" fill="none" xmlns="http://www.w3.org/2000/svg">
<path d="M6 19.8867H13.2088V96.7807M42.044 39.1102V77.5572C42.044 82.6556 43.563 87.5451 46.2669 91.1502C48.9707 94.7553 52.6379 96.7807 56.4616 96.7807C60.2854 96.7807 63.9526 94.7553 66.6564 91.1502C69.3603 87.5451 70.8793 82.6556 70.8793 77.5572V39.1102C70.8793 34.0118 69.3603 29.1223 66.6564 25.5172C63.9526 21.912 60.2854 19.8867 56.4616 19.8867C52.6379 19.8867 48.9707 21.912 46.2669 25.5172C43.563 29.1223 42.044 34.0118 42.044 39.1102ZM92.5057 39.1102V77.5572C92.5057 82.6556 94.0247 87.5451 96.7285 91.1502C99.4323 94.7553 103.1 96.7807 106.923 96.7807C110.747 96.7807 114.414 94.7553 117.118 91.1502C119.822 87.5451 121.341 82.6556 121.341 77.5572V39.1102C121.341 34.0118 119.822 29.1223 117.118 25.5172C114.414 21.912 110.747 19.8867 106.923 19.8867C103.1 19.8867 99.4323 21.912 96.7285 25.5172C94.0247 29.1223 92.5057 34.0118 92.5057 39.1102Z" stroke="#FAC50C" stroke-width="10.17" stroke-linecap="round" stroke-linejoin="round"/>
<mask id="path-2-outside-1_49_607" maskUnits="userSpaceOnUse" x="135.924" y="11" width="20" height="21" fill="black">
<rect fill="white" x="135.924" y="11" width="20" height="21"/>
<path d="M154.614 22.85H147.824V30.06H144.307V22.85H137.552V19.6475H144.307V12.4725H147.824V19.6475H154.614V22.85Z"/>
</mask>
<path d="M154.614 22.85H147.824V30.06H144.307V22.85H137.552V19.6475H144.307V12.4725H147.824V19.6475H154.614V22.85Z" fill="#FAC50C"/>
<path d="M154.614 22.85V23.85H155.614V22.85H154.614ZM147.824 22.85V21.85H146.824V22.85H147.824ZM147.824 30.06V31.06H148.824V30.06H147.824ZM144.307 30.06H143.307V31.06H144.307V30.06ZM144.307 22.85H145.307V21.85H144.307V22.85ZM137.552 22.85H136.552V23.85H137.552V22.85ZM137.552 19.6475V18.6475H136.552V19.6475H137.552ZM144.307 19.6475V20.6475H145.307V19.6475H144.307ZM144.307 12.4725V11.4725H143.307V12.4725H144.307ZM147.824 12.4725H148.824V11.4725H147.824V12.4725ZM147.824 19.6475H146.824V20.6475H147.824V19.6475ZM154.614 19.6475H155.614V18.6475H154.614V19.6475ZM154.614 21.85H147.824V23.85H154.614V21.85ZM146.824 22.85V30.06H148.824V22.85H146.824ZM147.824 29.06H144.307V31.06H147.824V29.06ZM145.307 30.06V22.85H143.307V30.06H145.307ZM144.307 21.85H137.552V23.85H144.307V21.85ZM138.552 22.85V19.6475H136.552V22.85H138.552ZM137.552 20.6475H144.307V18.6475H137.552V20.6475ZM145.307 19.6475V12.4725H143.307V19.6475H145.307ZM144.307 13.4725H147.824V11.4725H144.307V13.4725ZM146.824 12.4725V19.6475H148.824V12.4725H146.824ZM147.824 20.6475H154.614V18.6475H147.824V20.6475ZM153.614 19.6475V22.85H155.614V19.6475H153.614Z" fill="#FAC50C" mask="url(#path-2-outside-1_49_607)"/>
</svg>
