<svg width="135" height="108" viewBox="0 0 135 108" fill="none" xmlns="http://www.w3.org/2000/svg">
<path d="M0 99.1221L7.27158 101.07L105.18 40.9465L18.3321 104.034L31.6056 107.591L109.433 42.5328L100.243 61.0425L108.836 56.8492L105.259 72.9075L134.629 21.4901L74.5909 21.2127L94.4637 30.243L85.7317 34.4925L100.355 34.3841L8.46887 67.5158L7.11904 72.5534L62.7555 53.1208L10.3375 80.5105L47.51 66.5818L1.46532 93.6534L0 99.1221ZM46.8876 7.1748L53.6086 16.7558L103.827 16.8909L55.7029 0.306585L46.8876 7.1748ZM106.735 79.1785L110.514 86.219L118.041 83.0047L124.168 48.6287L106.735 79.1785Z" fill="#FAC50C"/>
</svg>
