<svg width="100" height="120" viewBox="0 0 100 120" fill="none" xmlns="http://www.w3.org/2000/svg">
<path d="M54.9317 116.935L54.8662 116.946L54.4782 117.139L54.369 117.161L54.2925 117.139L53.9046 116.94C53.8463 116.925 53.8026 116.936 53.7735 116.973L53.7516 117.028L53.6587 119.388L53.686 119.498L53.7407 119.57L54.3089 119.978L54.3908 120L54.4564 119.978L55.0246 119.57L55.0902 119.482L55.112 119.388L55.0191 117.034C55.0046 116.975 54.9754 116.942 54.9317 116.935ZM56.3741 116.312L56.2976 116.323L55.2923 116.835L55.2377 116.89L55.2213 116.951L55.3196 119.322L55.3469 119.388L55.3907 119.432L56.4888 119.939C56.558 119.958 56.6108 119.943 56.6473 119.895L56.6691 119.818L56.4833 116.433C56.4651 116.363 56.4287 116.323 56.3741 116.312ZM52.4677 116.323C52.4436 116.308 52.4148 116.303 52.3873 116.309C52.3599 116.315 52.3358 116.332 52.3202 116.356L52.2874 116.433L52.1016 119.818C52.1053 119.884 52.1362 119.928 52.1945 119.95L52.2765 119.939L53.3746 119.427L53.4293 119.383L53.4456 119.322L53.544 116.951L53.5276 116.885L53.473 116.83L52.4677 116.323Z" fill="#FAC50C"/>
<path d="M30.2473 28.73L30.7664 29.1876L77.1296 75.969C77.7373 76.5816 78.1933 77.3301 78.4605 78.1539C78.7278 78.9776 78.7989 79.8533 78.668 80.71C78.537 81.5666 78.2078 82.38 77.707 83.0842C77.2062 83.7884 76.5479 84.3635 75.7856 84.7629L75.1518 85.0386L18.4134 106.138C7.74866 110.108 -2.63745 99.991 0.602408 89.2453L0.875582 88.4404L21.7789 31.1835C22.0553 30.425 22.4935 29.7371 23.0625 29.1685C23.6315 28.5999 24.3174 28.1645 25.0717 27.893C25.8259 27.6216 26.6301 27.5208 27.4273 27.5978C28.2244 27.6748 28.995 27.9277 29.6846 28.3385L30.2473 28.73ZM79.5882 52.6803C84.5654 52.9449 91.3894 54.0035 97.3227 57.5983C98.5256 58.3179 99.4092 59.4756 99.7917 60.8329C100.174 62.1902 100.026 63.6438 99.3786 64.8945C98.731 66.1451 97.6328 67.0976 96.3101 67.5557C94.9875 68.0138 93.5412 67.9427 92.269 67.357L91.7008 67.0538C87.9747 64.7933 83.2105 63.9111 79.0145 63.6906C77.2855 63.5942 75.5524 63.6016 73.8242 63.7127L72.0977 63.8836C70.6725 64.0692 69.2322 63.6806 68.0888 62.8022C66.9455 61.9237 66.1911 60.626 65.9892 59.1902C65.7873 57.7544 66.154 56.2961 67.01 55.1313C67.8661 53.9665 69.1424 53.1889 70.5625 52.967C73.5548 52.5774 76.5773 52.4795 79.5882 52.6748M90.6518 37.3144C92.0438 37.3173 93.3823 37.8564 94.3938 38.8215C95.4054 39.7866 96.0137 41.105 96.0946 42.5074C96.1755 43.9099 95.7228 45.2906 94.8291 46.3676C93.9353 47.4446 92.6679 48.1367 91.2855 48.3026L90.6518 48.3412H86.7836C85.3915 48.3383 84.0531 47.7992 83.0415 46.8341C82.03 45.869 81.4217 44.5506 81.3408 43.1482C81.2599 41.7458 81.7126 40.3651 82.6063 39.288C83.5001 38.211 84.7675 37.5189 86.1499 37.353L86.7836 37.3144H90.6518ZM73.2669 33.0856C74.2076 34.035 74.7727 35.2981 74.8562 36.638C74.9397 37.9779 74.5358 39.3025 73.7204 40.3633L73.2669 40.8816L67.4702 46.7313C66.487 47.7201 65.1676 48.2942 63.7802 48.337C62.3927 48.3797 61.0412 47.8879 60 46.9615C58.9589 46.0351 58.3062 44.7434 58.1746 43.349C58.0429 41.9545 58.4422 40.5618 59.2913 39.4536L59.7448 38.9353L65.5361 33.0911C66.0435 32.5785 66.646 32.1718 67.3093 31.8944C67.9726 31.6169 68.6835 31.4741 69.4015 31.4741C70.1195 31.4741 70.8304 31.6169 71.4937 31.8944C72.157 32.1718 72.7595 32.573 73.2669 33.0856ZM59.1329 4.05743C61.5805 11.4785 60.2693 19.6053 58.7395 25.2841C57.8239 28.8257 56.561 32.2665 54.9697 35.5556C54.3227 36.8643 53.187 37.8601 51.8125 38.3238C50.438 38.7875 48.9373 38.6813 47.6404 38.0284C46.3435 37.3755 45.3568 36.2294 44.8973 34.8424C44.4377 33.4553 44.543 31.9408 45.19 30.6321C46.4612 27.9906 47.4679 25.2275 48.1949 22.384C49.4352 17.7969 50.058 12.8183 49.1019 8.73833L48.7686 7.54743C48.5305 6.85792 48.4305 6.12754 48.4744 5.39871C48.5183 4.66987 48.7052 3.9571 49.0243 3.30176C49.3434 2.64641 49.7883 2.06156 50.3332 1.58115C50.8781 1.10073 51.5121 0.734331 52.1985 0.503209C52.8848 0.272087 53.6099 0.18085 54.3314 0.234793C55.053 0.288736 55.7568 0.486786 56.4019 0.817445C57.0471 1.1481 57.6207 1.60479 58.0895 2.16098C58.5583 2.71717 58.9129 3.3618 59.1329 4.05743ZM88.7177 17.4992C89.7419 18.5331 90.3173 19.9352 90.3173 21.3971C90.3173 22.8591 89.7419 24.2612 88.7177 25.2951L84.855 29.1931C84.351 29.7197 83.7481 30.1397 83.0816 30.4287C82.415 30.7176 81.6981 30.8697 80.9726 30.8761C80.2472 30.8825 79.5278 30.743 78.8563 30.4657C78.1849 30.1885 77.5749 29.7791 77.0619 29.2615C76.5489 28.7438 76.1432 28.1282 75.8685 27.4506C75.5938 26.7731 75.4556 26.047 75.4619 25.315C75.4682 24.5829 75.6189 23.8594 75.9052 23.1868C76.1916 22.5141 76.6078 21.9057 77.1296 21.3971L80.9923 17.4992C82.0169 16.4655 83.4063 15.8849 84.855 15.8849C86.3037 15.8849 87.6931 16.4655 88.7177 17.4992Z" fill="#FAC50C"/>
</svg>
