<svg width="73" height="70" viewBox="0 0 73 70" fill="none" xmlns="http://www.w3.org/2000/svg">
<path d="M23.485 52.8788C22.6893 52.1396 21.9787 51.3369 21.3237 50.5147L20.8058 49.8269C20.6478 49.6075 20.4392 49.347 20.353 49.1899L20.0095 48.6545L19.9232 48.5186L19.8809 48.4548C19.9379 48.5285 19.7816 48.3172 19.7881 48.3287L19.7636 48.291L19.5911 47.998C18.6537 46.4542 17.8339 44.9042 17.1252 43.3789C16.7627 42.6179 16.4165 41.8749 16.1144 41.119C15.7976 40.3744 15.5233 39.63 15.2604 38.9002C14.7199 37.4522 14.2905 36.029 13.9344 34.6762C13.5652 33.3218 13.2842 32.0264 13.0749 30.7933C12.6335 28.3401 12.4741 26.1754 12.4591 24.3984C12.4245 22.6295 12.6063 21.2257 12.7314 20.2877C12.8988 19.371 13.0146 18.8808 13.0146 18.8808C13.0146 18.8808 13.1392 19.3617 13.3771 20.2663C13.6478 21.1432 14.0253 22.411 14.6652 23.9753C15.2921 25.538 16.1307 27.3774 17.1911 29.4152C17.4611 29.9226 17.7262 30.4479 18.0419 30.9718C18.3413 31.4989 18.6325 32.0489 18.9727 32.5891C19.3096 33.1343 19.6334 33.699 20.0063 34.2541C20.3677 34.8157 20.7193 35.3919 21.1199 35.9585C21.5058 36.5365 21.9047 37.1161 22.3397 37.6844C22.5498 37.9743 22.7599 38.2641 22.9716 38.5621C23.1899 38.8504 23.4163 39.137 23.6411 39.4367C24.5354 40.6109 25.5344 41.7559 26.5415 42.9206L26.7289 43.1385L26.7518 43.168C26.7746 43.1974 26.6312 43.0091 26.7045 43.1008L26.7583 43.1582L26.8659 43.2729L27.3011 43.7349C27.4641 43.9151 27.5506 43.966 27.668 44.066L27.9909 44.3463C28.5146 44.7611 29.0316 45.1857 29.5978 45.5582C30.709 46.3242 31.9481 46.9206 33.2251 47.3862C34.502 47.8731 35.8564 48.1493 37.2095 48.2686C38.5593 48.3928 39.9194 48.3535 41.2081 48.0819C43.8084 47.5895 46.1213 46.3509 47.9847 44.4705L48.3305 44.1133L48.3551 44.0872L48.4256 44.035L48.6649 43.7626L48.9043 43.4902L49.0256 43.3515L49.0748 43.278C49.1372 43.185 49.1963 43.0969 49.2635 43.0071C49.3225 42.9402 49.4145 42.7819 49.4965 42.6595C49.577 42.5289 49.6721 42.4081 49.7476 42.2743C49.8938 42.0033 50.0645 41.7486 50.1878 41.4694C50.7399 40.3705 51.1026 39.1731 51.2791 37.936C51.6158 35.4651 51.2369 32.8339 50.1374 30.7486C49.5958 29.7044 48.9313 28.7694 48.1291 27.9975C47.3204 27.2355 46.4017 26.6055 45.3748 26.1372C44.8704 25.9055 44.2971 25.7129 43.7826 25.5597C43.345 25.4082 42.814 25.3007 42.363 25.2539C41.4315 25.1617 40.5617 25.2316 39.7421 25.5125C38.1159 26.0546 36.7555 27.4704 36.23 29.027C35.6604 30.5754 35.8964 32.2025 36.6386 33.4238C37.3644 34.6696 38.446 35.4797 39.1933 35.9735C39.9619 36.4674 40.4223 36.6908 40.4223 36.6908C40.4223 36.6908 40.2964 36.6987 40.0528 36.7128C39.8092 36.727 39.4397 36.749 38.9527 36.7135C37.9934 36.6524 36.4917 36.469 34.7489 35.3434C33.8939 34.7774 33.0249 33.9253 32.3364 32.7826C31.6676 31.6318 31.1876 30.1888 31.1247 28.5997C31.0553 27.0204 31.3295 25.2882 32.0939 23.6291C32.842 21.9733 34.0411 20.343 35.7133 19.0866C37.3643 17.8089 39.4589 16.9065 41.6534 16.575C42.7654 16.3978 43.8411 16.3382 45.008 16.3966C46.0981 16.4531 47.1389 16.6256 48.2268 16.8864C50.3815 17.4081 52.5874 18.319 54.5403 19.7131C56.4884 21.104 58.2851 22.8476 59.62 24.9204C62.3717 29.0284 63.6578 34.1482 63.1606 39.272C62.9006 41.8297 62.222 44.3979 61.0586 46.7688C60.7906 47.3697 60.4442 47.9395 60.1206 48.5174C59.9564 48.8047 59.7678 49.0756 59.5889 49.3531C59.4018 49.6322 59.2409 49.8934 58.9966 50.205L58.3126 51.0878L58.1388 51.3048L58.0175 51.4435L57.7781 51.7159L57.5388 51.9884L57.4174 52.127L57.2502 52.313L57.2076 52.3554L57.1224 52.4402L56.4488 53.117C54.6167 54.8978 52.4437 56.3934 50.1067 57.488C47.7648 58.5794 45.2621 59.2649 42.7671 59.5157C40.2704 59.7795 37.7993 59.6134 35.45 59.16C33.109 58.6624 30.893 57.8512 28.8722 56.7806C26.8513 55.7312 25.0536 54.3701 23.485 52.8788Z" fill="#103539"/>
</svg>
