<svg width="465" height="225" viewBox="0 0 465 225" fill="none" xmlns="http://www.w3.org/2000/svg">
<g clip-path="url(#clip0_2114_15318)">
<path d="M164.537 113.427C165.339 117.293 163.599 124.483 161.599 129.814C159.593 135.144 159.774 136.908 159.102 141.303C158.435 145.699 156.158 151.057 154.955 152.258C153.752 153.458 153.78 156.23 153.78 156.23L148.972 163.167L151.254 166.959C151.254 166.959 159.328 167.653 164.938 159.656C170.548 151.66 172.418 120.617 172.418 113.427C172.418 106.237 163.735 109.567 164.537 113.427Z" fill="#295156"/>
<path d="M177.345 26.4395C177.345 26.4395 189.158 33.6804 190.034 37.5179L188.068 39.4338C188.068 39.4338 191.13 46.4663 192.226 52.214C193.322 57.9673 192.006 68.1892 193.322 73.3058C194.633 78.4167 198.571 78.2082 197.695 82.8909C197.695 82.8909 203.599 89.9234 200.537 93.5411C197.475 97.1644 195.288 98.2294 195.288 99.0803C195.288 99.9312 194.853 107.815 194.853 107.815C194.853 107.815 198.333 111.838 197.52 118.994C197.52 118.994 201.333 122.178 201.333 125.886C201.333 129.599 205.418 142.058 208.955 144.972C212.492 147.891 210.588 150.539 210.588 150.539C210.588 150.539 213.853 151.598 214.944 155.842C216.034 160.085 230.187 199.581 230.187 199.581L229.367 201.085C229.367 201.085 230.706 201.981 231.379 201.654C232.051 201.327 232.802 199.614 233.644 199.778C234.48 199.941 237.413 201.818 241.774 201.412C246.13 201.006 249.232 199.288 251.158 199.451C253.085 199.614 254.593 202.144 254.593 202.144C254.593 202.144 252.752 209.245 244.706 211.448C236.661 213.651 230.881 213.978 227.61 215.364C224.339 216.75 221.492 216.998 221.492 216.998C221.492 216.998 218.893 214.062 219.147 207.205C219.147 207.205 214.876 208.349 213.446 207.532C213.446 207.532 201.949 186.028 193.588 170.757C185.226 155.487 180.26 143.783 180.26 143.783C180.26 143.783 177.91 161.854 170.068 173.558C162.226 185.262 147.074 202.826 147.074 202.826L143.068 200.77C143.068 200.77 142.542 202.995 143.944 204.703C145.35 206.416 149.39 209.492 149.39 209.492C149.39 209.492 156.062 208.98 157.119 211.031C158.175 213.082 157.294 215.308 157.294 215.308C157.294 215.308 152.198 217.19 144.644 216.333C137.091 215.477 136.565 212.569 132.876 211.031C129.187 209.493 122.689 206.241 122.689 206.241C122.689 206.241 125.678 198.031 127.61 197.343C129.542 196.662 129.542 196.662 129.542 196.662L132 194.78L131.65 192.728C131.65 192.728 141.576 179.154 144.684 170.859C147.791 162.564 154.672 156.986 155.164 156.986C155.656 156.986 159.424 153.638 159.915 150.765C160.407 147.896 161.881 140.875 161.881 140.875C161.881 140.875 161.226 139.28 161.718 135.133C162.209 130.986 166.305 123.328 165.814 118.707C165.322 114.081 161.017 106.203 163.689 99.4578L165.424 94.3976C165.424 94.3976 158.656 88.7231 158.023 84.125C157.396 79.5268 159.757 62.9317 159.599 56.35C159.441 49.7684 163.526 39.0562 167.141 35.5343C170.757 32.0125 174.057 31.2517 174.057 31.2517L177.345 26.4395Z" fill="#295156"/>
<path d="M187.475 36.7796C187.695 36.7063 190.644 29.533 190.718 29.0991C190.791 28.6708 195.435 29.888 196.616 28.6708C197.797 27.448 197.198 25.5716 197.198 25.5716C197.198 25.5716 197.932 25.2109 198.017 24.777C198.096 24.3375 197.689 24.0614 197.689 24.0614C197.689 24.0614 198.548 23.2669 198.345 22.9457C198.141 22.6301 198.017 22.3878 198.017 22.3878C198.017 22.3878 197.774 22.2695 198.305 21.4355C198.836 20.6015 200.062 20.4437 199.898 19.807C199.734 19.1702 197.695 18.2573 197.283 17.1022C196.876 15.947 198.311 12.0814 197.226 9.90627C196.141 7.73116 195.051 8.30593 195.051 8.30593L196.621 10.3458C196.621 10.3458 199.102 6.95353 193.04 3.45419C186.977 -0.0395071 183.52 -1.08198 178.254 1.25091C172.989 3.5838 171.87 6.6098 170.915 9.79921L170.853 15.1975C170.853 15.1975 166.096 13.0675 166.571 18.432C167.051 23.7909 173.226 22.4667 173.226 22.4667C173.226 22.4667 175.542 25.6505 177.695 25.4194L176.74 28.992L187.475 36.7796Z" fill="#295156"/>
<path d="M296.266 106.225C296.266 106.225 293.317 110.502 294.119 116.12C294.921 121.738 295.192 123.339 295.192 123.339C295.192 123.339 294.927 124.945 295.458 128.151C295.995 131.357 294.119 147.406 294.119 147.406C294.119 147.406 294.656 149.812 291.972 151.683C289.288 153.554 283.661 165.32 283.661 165.32L274.012 190.192C274.012 190.192 269.865 193.647 268.136 196.013C266.407 198.386 264.571 199.248 265.65 200.645C266.729 202.049 270.599 207.03 272.164 209.673C273.729 212.31 273.848 215.668 278.418 216.75C282.989 217.832 291.046 217.229 292.492 216.632L292.249 213.752C292.249 213.752 289.481 210.512 285.514 209.194C285.514 209.194 283.108 204.156 283.469 202.116C283.831 200.076 285.034 198.279 285.034 198.279L287.079 199.118C287.079 199.118 302.226 168.875 307.192 162.265C312.164 155.656 312.164 148.341 312.164 148.341C312.164 148.341 314.057 157.312 313.345 161.561C312.633 165.81 312.164 168.408 313.345 171.946C314.526 175.485 318.317 205.937 318.317 205.937L319.582 205.813V207.396C319.582 207.396 318.413 206.647 318.243 207.565C318.074 208.484 317.074 216.328 317.74 216.998C317.74 216.998 323.514 218.001 328.119 216.914C332.724 215.826 336.656 216.249 339 216.666C341.345 217.083 348.622 217.753 352.893 213.995C352.893 213.995 353.142 211.155 351.887 210.236C350.633 209.318 343.435 210.321 339.667 208.399C335.899 206.478 332.469 203.891 332.469 203.891L331.379 203.807L332.548 202.719C332.548 202.719 331.571 170.577 332.701 163.64C333.831 156.704 331.893 148.155 331.893 148.155C331.893 148.155 334.317 116.695 333.187 111.212C332.057 105.729 330.599 104.276 330.599 104.276C330.599 104.276 332.701 101.548 331.373 97.5756C330.046 93.6029 320.531 79.7014 320.531 68.0087C320.531 56.3161 320.091 47.7115 318.096 45.5025C316.108 43.2936 314.113 39.9859 314.113 39.9859C314.113 39.9859 307.085 29.9612 301.678 31.6743C296.272 33.3873 290.989 42.9443 290.13 46.8662C289.272 50.7882 290.13 52.7492 290.006 59.607C289.882 66.4704 287.673 68.7976 289.639 72.714C291.616 76.6359 296.266 106.225 296.266 106.225Z" fill="#295156"/>
<path d="M294.413 65.2702C294.413 65.2702 287.3 53.3522 283.825 53.803C280.351 54.2538 269.452 64.9716 268.396 68.2906C267.339 71.6096 266.43 73.5706 267.639 73.8749L269.306 83.0768C269.306 83.0768 265.526 84.7392 265.373 85.9451C265.221 87.1509 267.492 94.2454 268.249 99.8297C269.006 105.414 269.916 109.336 273.848 109.336C273.848 109.336 272.034 112.356 277.78 112.959C283.531 113.562 291.548 116.881 297.599 112.807C303.65 108.733 306.978 96.3585 306.978 96.3585L294.413 65.2702Z" fill="#295156"/>
<path d="M280.3 57.2404C280.3 57.2404 280.52 54.4679 278.396 52.862C276.272 51.256 281.102 47.5312 281.102 47.5312C281.102 47.5312 284.176 48.5512 284.763 51.4701C285.351 54.389 285.351 56.1415 285.351 56.1415L283.373 55.8485C283.373 55.8485 283.373 51.8364 281.837 51.1038C280.3 50.3713 280.373 52.0505 280.373 52.0505C280.373 52.0505 282.644 53.51 281.983 56.9417C281.328 60.3791 280.3 57.2404 280.3 57.2404Z" fill="#295156"/>
<path d="M303.978 31.584C303.978 31.584 298.531 30.4401 293.497 35.9906C288.464 41.5411 284.079 55.4201 284.079 55.4201L286.113 56.6992C286.113 56.6992 289.752 40.0422 297.673 36.6274C305.594 33.2125 303.978 31.584 303.978 31.584Z" fill="#295156"/>
<path d="M301.69 31.6742C301.69 31.6742 305.825 29.4935 308.56 22.7935L318.351 27.679C318.351 27.679 314.481 37.1064 315.39 41.5355C316.305 45.9646 301.69 31.6742 301.69 31.6742Z" fill="#295156"/>
<path d="M326.147 23.8416C325.582 24.732 325.842 24.8616 325.842 24.8616C325.842 24.8616 325.972 25.1151 326.192 25.4532C326.407 25.7913 325.497 26.6366 325.497 26.6366C325.497 26.6366 325.933 26.9352 325.848 27.3973C325.757 27.865 324.978 28.2426 324.978 28.2426C324.978 28.2426 325.61 30.243 324.356 31.5447C323.102 32.8464 318.159 31.5447 318.079 32.0011C318 32.4632 314.859 40.1042 314.627 40.1775L303.763 34.8693L305.972 28.9977C307.108 28.8793 304.989 27.8087 304.989 27.8087C304.989 27.8087 303.836 23.8529 302.26 18.7814C300.684 13.7099 300.074 9.24134 304.989 4.615C310.594 2.12997 313.678 2.77236 320.13 6.49146C324.616 9.07792 325.119 9.82174 324.757 11.1234C324.836 11.2587 324.916 11.4052 324.995 11.5686C326.147 13.8846 324.622 17.9981 325.057 19.2266C325.492 20.455 327.667 21.4298 327.842 22.106C328.017 22.7822 326.712 22.9513 326.147 23.8416Z" fill="#295156"/>
<path d="M299.938 18.37C299.938 18.37 298.808 9.97953 300.407 6.43511C300.407 6.43511 310.063 0.862094 315.147 0.676139C317.684 0.580344 325.396 8.64967 325.396 8.64967L329.814 10.5261C329.814 10.5261 329.91 12.5942 321.441 17.2825C311.096 23.002 297.859 24.1685 297.582 24.1685C297.305 24.1685 299.938 18.37 299.938 18.37Z" fill="#295156"/>
<path d="M397.684 116.679C397.548 117.09 403.153 127.312 403.695 130.31C403.695 130.31 400.825 133.719 402.057 135.623C403.288 137.534 403.424 139.438 403.424 139.438C403.424 139.438 399.599 148.161 400.141 150.072C400.689 151.982 399.322 153.345 399.322 153.345C399.322 153.345 397.819 154.98 397.548 157.16C397.277 159.341 394.678 159.612 394.407 164.52C394.136 169.428 386.079 194.436 386.079 194.436L385.599 196.425C385.599 196.425 384.124 195.338 383.87 196.555C383.616 197.772 383.458 200.082 381.966 202.787C380.475 205.492 378.175 209.138 378.582 212.648L378.718 213.73C378.718 213.73 383.593 216.3 388.605 216.97C393.616 217.646 393.887 220.075 398.627 220.075C403.367 220.075 411.497 219.399 411.768 218.317C412.04 217.235 411.09 214.401 411.09 214.401C411.09 214.401 407.435 212.643 402.418 211.696C397.407 210.749 396.458 205.886 396.322 202.917C396.187 199.947 395.78 199.136 395.78 199.136L404.045 201.84L414.339 169.146C414.339 169.146 419.893 192.79 422.74 199.412C425.588 206.033 426.396 208.867 426.396 208.867C426.396 208.867 429.644 209.679 431.407 208.326C433.17 206.974 433.848 206.839 433.848 206.839C433.848 206.839 433.848 208.732 432.627 211.431C431.407 214.136 431.407 221.563 431.407 221.563C431.407 221.563 434.791 222.239 439.537 223.05C444.283 223.862 446.582 225.755 452.136 224.673C457.689 223.591 465.006 222.51 465.006 220.757C465.006 218.999 462.565 217.246 462.565 217.246C462.565 217.246 457.147 216.705 453.492 214.142C449.836 211.578 444.819 204.416 443.605 203.604C442.384 202.793 440.757 196.983 439.814 193.067C438.864 189.15 437.107 158.547 435.079 152.185C433.051 145.817 430.294 133.668 429.565 129.036C428.842 124.404 428.695 121.947 428.695 121.947L430.723 122.381C430.723 122.381 433.961 106.93 432.322 98.6465L430.028 89.8221C430.028 89.8221 428.379 79.9101 430.531 71.452C432.684 62.9939 434.972 51.8478 432.684 48.6246C430.396 45.4014 427.52 43.0065 427.09 43.0065C426.661 43.0065 415.311 34.4131 409.712 35.4162C404.107 36.4192 400.949 39.1409 397.791 41.147C394.633 43.153 390.322 55.0429 389.605 57.0489C388.887 59.055 384.723 66.9327 384.723 66.9327L386.305 68.6514C386.305 68.6514 384.294 73.8074 385.441 75.96C386.588 78.1069 393.774 81.116 393.774 81.116L398.655 84.266L396.785 84.9816C396.785 84.9816 390.751 84.6942 390.322 84.9816C389.893 85.269 386.446 92.7185 388.74 95.1528C388.74 95.1528 385.294 102.028 385.006 106.327C384.718 110.627 386.729 112.633 388.74 114.064C390.751 115.495 397.684 116.679 397.684 116.679Z" fill="#295156"/>
<path d="M424.198 70.5164C424.198 70.5164 427.277 89.6923 430.655 94.375C434.028 99.0577 440.339 109.888 440.339 109.888L441.305 111.765C441.305 111.765 440.565 116.273 441.718 117.507C442.87 118.735 443.034 119.558 443.034 119.558C443.034 119.558 442.949 123.576 444.35 124.066C444.35 124.066 444.102 125.131 443.774 125.542C443.446 125.954 440.977 126.607 441.475 127.757C441.475 127.757 440.983 129.233 442.215 129.07C443.446 128.906 444.023 128.332 444.023 128.332C444.023 128.332 444.514 128.985 445.667 128.332C446.819 127.678 449.119 125.052 449.119 125.052C449.119 125.052 449.859 120.544 449.695 118.741C449.531 116.938 446.571 113.331 445.994 110.378C445.418 107.426 443.446 103.492 442.87 101.605C442.294 99.717 436.994 82.2034 436.78 77.7067L437.746 77.4925C437.746 77.4925 436.136 68.1779 436.243 62.7232C436.35 57.2685 435.13 54.9694 432.684 48.6244C430.232 42.2738 424.198 70.5164 424.198 70.5164Z" fill="#295156"/>
<path d="M409.989 37.1066C409.989 37.1066 412.774 34.0693 413.774 30.2826C414.774 26.4902 414.537 24.5124 414.537 24.5124C414.537 24.5124 413.079 24.2813 412.554 22.8049C412.023 21.3286 411.819 18.8999 412.876 18.404C412.876 18.404 411.751 14.2116 411.932 12.4534C412.113 10.6953 416.062 6.24931 421.153 5.05469C426.237 3.86007 430.452 5.17303 432.751 7.01567C435.051 8.85832 435.836 11.7772 435.633 13.4452L435.141 12.645C435.141 12.645 435.396 14.0932 434.616 14.9103C434.616 14.9103 434.661 16.398 434.333 17.7447C434.006 19.0915 434.554 21.4413 434.384 22.8951C434.215 24.3489 432.915 25.7971 432.345 28.6146C431.774 31.4265 430.605 32.3788 429.881 32.7056C429.164 33.0325 427.209 33.1677 427.209 33.1677C427.209 33.1677 425.107 43.3783 423.226 45.1308C421.345 46.8777 409.989 37.1066 409.989 37.1066Z" fill="#295156"/>
<path d="M60.5819 130.851L59.1469 145.085C59.1469 145.085 52.2994 147.046 46.1299 144.453C39.9604 141.861 55.7118 125.993 60.5819 130.851Z" fill="#295156"/>
<path d="M57.8983 133.24L62.435 145.868C62.435 145.868 76.0508 147.057 84.6497 139.196C84.6497 139.196 80.5875 121.564 77.2429 114.176C73.8983 106.789 43.5593 111.319 43.5593 111.319C43.5593 111.319 39.7344 120.375 39.2599 125.615C38.7796 130.856 36.3954 142.768 36.3954 142.768C36.3954 142.768 48.8192 147.293 55.5084 145.625L57.8983 133.24Z" fill="#295156"/>
<path d="M40.1073 140.447C40.1073 140.447 40.5932 146.448 38.8079 151.638C37.0169 156.828 31.6554 161.043 27.5876 164.937C23.5254 168.83 13.1186 191.534 11.1638 194.126C9.21469 196.718 7.75141 197.529 7.75141 197.529C7.75141 197.529 6.1017 196.222 5.27684 197.946C4.45198 199.671 2.11864 201.412 1.43503 204.641L0.751412 204.579L0 207.064C0 207.064 4.29379 210.417 8.65537 211.972C13.0113 213.527 14.2599 214.023 16.1864 214.953C18.1186 215.883 21.2938 216.942 25.8983 216.508C30.5085 216.074 31.8757 214.829 31.8757 214.829L31.3785 213.837C31.3785 213.837 32.1864 212.349 30.5706 211.972C28.9492 211.6 23.661 208.867 21.9153 206.258C20.1695 203.649 19.983 202.409 19.983 202.409C19.983 202.409 21.3503 199.366 20.4181 199.056C19.4859 198.747 25.4407 186.271 35.1638 175.682C44.887 165.094 47.2034 164.728 49.3842 161.894C51.0508 159.73 54.8192 147.581 54.9943 143.85C55.1808 140.114 40.1073 140.447 40.1073 140.447Z" fill="#295156"/>
<path d="M63.7289 142.07C63.5877 142.695 68.5368 146.865 70.4973 156.106C72.4577 165.342 69.2487 169.608 71.921 176.178C74.5933 182.749 80.825 196.966 81.7176 200.516C82.6103 204.072 82.6103 204.072 82.6103 204.072C82.6103 204.072 80.7741 204.072 80.8532 205.61C80.9323 207.148 81.3278 209.56 81.4464 212.592C81.5142 214.293 82.0679 215.815 83.2882 215.894C84.0396 215.945 87.3447 214.541 92.2374 214.017C96.1131 213.6 99.4803 213.138 101.802 212.085C107.893 209.329 110.006 205.362 109.763 204.066C109.571 203.029 107.023 202.161 106.017 201.857C105.763 201.778 105.497 201.784 105.243 201.868C103.797 202.353 98.599 203.621 95.0679 200.668C91.9888 198.093 91.2487 198.482 90.6837 198.803C90.6837 198.803 88.1074 189.578 86.7346 182.929C85.695 177.903 84.2826 170.639 83.6216 167.23C83.3843 166.018 83.3334 164.779 83.4577 163.55C83.6216 161.95 83.8137 159.594 83.7176 157.915C83.5651 155.137 82.0905 149.587 82.017 148.268C81.8024 144.459 80.7007 136.35 80.7007 136.35C80.7007 136.35 66.3278 130.698 63.7289 142.07Z" fill="#295156"/>
<path d="M74.0733 82.9811C74.0733 82.9811 79.9942 82.874 82.2541 84.3786C84.514 85.8831 85.2654 87.0608 89.1411 87.923C93.0168 88.7795 93.2315 93.2931 94.8473 93.4002C94.8473 93.4002 95.1694 94.4145 96.0959 94.1497C97.0225 93.8848 96.6948 93.2255 96.6948 93.2255C96.6948 93.2255 97.5535 94.1497 98.1524 93.6876C98.7513 93.2255 98.3502 91.9013 98.3502 91.9013C98.3502 91.9013 99.2767 92.3634 99.74 91.5688C100.203 90.7743 99.2767 88.926 99.5422 87.737C99.8078 86.548 97.6891 85.4267 95.2993 83.5051C92.9151 81.5892 90.7965 82.2485 85.6948 80.0678C80.5931 77.887 75.8247 74.9794 70.853 74.5173C65.8869 74.0609 65.5648 82.5247 74.0733 82.9811Z" fill="#295156"/>
<path d="M45.3277 35.8499C45.3277 35.8499 41.2994 37.3657 40.3842 40.3016C39.4633 43.2374 36.6836 55.4823 38.339 60.4354C39.9943 65.3886 39.4407 64.842 38.339 69.9755C37.2373 75.1146 35.7627 84.2884 34.661 90.5263C33.5593 96.7643 32.2712 105.206 32.2712 105.206C32.2712 105.206 30.6441 108.581 29.0339 110.931L27.322 108.902L21.7514 114.672L24.1073 117.557C24.1073 117.557 23.6384 119.71 24.1525 119.71C24.6667 119.71 25.4237 119.276 25.4237 119.276C25.4237 119.276 24.3503 121.339 25.1469 121.457C25.9435 121.575 26.4972 121.378 26.4972 121.378C26.4972 121.378 26.0621 122.804 27.1356 123.006C28.209 123.204 28.209 122.928 28.209 122.928C28.209 122.928 27.8531 124.753 28.7288 124.832C29.6045 124.911 30.0791 124.359 30.0791 124.359L33.1412 127.531L38.6271 122.494L35.4068 118.763C35.4068 118.763 36.8362 113.213 37.3559 111.269C37.8757 109.325 39.1299 106.699 39.226 103.132C39.322 99.5649 45.0282 84.0292 45.0282 84.0292C45.0282 84.0292 47.1582 90.3967 45.6102 98.4041C44.0621 106.411 39.7119 118.47 39.7119 118.758C39.7119 119.045 74.8701 120.905 83.7966 116.994C83.7966 116.994 76.3277 104.603 74.0734 82.9923C71.8192 61.3821 71.9943 66.5889 70.887 61.0666C69.7797 55.5443 65.4746 50.7545 62.6441 45.1082C59.8135 39.4563 55.5819 32.3675 45.3277 35.8499Z" fill="#295156"/>
<path d="M47.39 27.4368C47.39 27.4368 48.6725 34.0861 43.2883 36.9825L59.0058 40.8143C59.0058 40.8143 57.9832 37.7489 60.4578 35.106C62.9323 32.4632 63.9606 29.5668 63.9606 29.5668C63.9606 29.5668 69.4295 30.4177 70.5369 29.6514C71.6499 28.885 70.1979 27.0085 70.7064 26.1577C71.2205 25.3068 71.5595 25.3293 71.1244 24.7545C71.1244 24.7545 71.6668 24.3939 71.4521 23.8529C71.2374 23.312 70.7628 22.771 71.3052 22.3033C71.8476 21.8356 73.26 21.2214 73.1131 20.5734C72.9662 19.9254 70.1244 16.719 70.3561 15.9358C70.5877 15.1525 70.7741 12.0194 70.4013 10.7741C70.034 9.52877 68.6273 6.74508 66.8645 6.10269C66.8645 6.10269 67.2657 3.94449 66.1414 3.3021C65.0284 2.65971 55.4013 -1.80322 48.3222 4.04028C41.2374 9.88378 43.4239 16.5105 38.9662 22.7879C34.5086 29.0653 38.9662 34.2101 36.3448 38.3969C33.7233 42.5837 32.4126 50.6079 36.6047 52.2646C40.8024 53.9213 44.9097 51.7406 44.9097 51.7406C44.9097 51.7406 56.6273 39.6197 54.3504 30.1134" fill="#295156"/>
<path d="M82.2485 213.832L81.3107 214.265C81.3107 214.265 81.5819 215.95 82.3672 216.407C82.3672 216.407 87.0169 214.48 89.8926 214.282C92.7626 214.085 109.859 213.848 110.638 203.3L108.91 202.567L107.842 204.708C107.842 204.72 83.4237 213.313 82.2485 213.832Z" fill="#295156"/>
</g>
<defs>
<clipPath id="clip0_2114_15318">
<rect width="465" height="225" fill="white"/>
</clipPath>
</defs>
</svg>
