<svg width="106" height="100" viewBox="0 0 106 100" fill="none" xmlns="http://www.w3.org/2000/svg">
<path d="M102.973 66.6328C99.3178 76.375 92.5494 84.8091 83.5997 90.7735C74.65 96.7379 63.9593 99.9393 52.9999 99.9367C29.9318 99.9367 10.303 86.0355 3.02694 66.6328C18.0466 75.3683 35.3528 79.98 52.9999 79.9494C71.3251 79.9494 88.442 75.0775 102.973 66.6328ZM101.362 29.5063C104.796 36.7112 106.362 44.5833 105.93 52.4718C90.9152 63.8171 72.2408 69.9857 52.9999 69.9557C32.9789 69.9557 14.5795 63.4099 0.069895 52.4668C-0.360967 44.58 1.20485 36.7097 4.63794 29.5063C18.5045 39.5567 35.5101 44.9948 52.9999 44.9715C71.1979 44.9715 87.965 39.2052 101.362 29.5063ZM52.9999 1.04528e-05C61.4022 -0.00511617 69.6852 1.87561 77.164 5.48669C84.6428 9.09778 91.1026 14.3355 96.0095 20.7669C83.8083 29.9852 68.6346 34.9988 52.9999 34.9779C36.7308 34.9779 21.7761 29.6612 9.99029 20.7669C14.8971 14.3355 21.357 9.09778 28.8358 5.48669C36.3146 1.87561 44.5975 -0.00511617 52.9999 1.04528e-05Z" fill="#FAC50C"/>
</svg>
